<svg width="58" height="50" viewBox="0 0 58 50" fill="none" xmlns="http://www.w3.org/2000/svg">
    <path d="M57.125 15.625C57.1228 13.6365 56.332 11.7301 54.9259 10.3241C53.5199 8.91804 51.6135 8.12717 49.625 8.125H44V6.25C43.9984 4.75863 43.4053 3.32879 42.3508 2.27424C41.2962 1.21968 39.8664 0.626551 38.375 0.625H19.625C18.1336 0.626551 16.7038 1.21968 15.6492 2.27424C14.5947 3.32879 14.0016 4.75863 14 6.25V8.125H8.375C6.38654 8.12717 4.48015 8.91804 3.0741 10.3241C1.66804 11.7301 0.877171 13.6365 0.875 15.625V21.25H57.125V15.625ZM40.25 8.125H17.75V6.25C17.75 5.75272 17.9475 5.27581 18.2992 4.92418C18.6508 4.57254 19.1277 4.375 19.625 4.375H38.375C38.8723 4.375 39.3492 4.57254 39.7008 4.92418C40.0525 5.27581 40.25 5.75272 40.25 6.25V8.125Z"
          fill="currentColor"/>
    <path d="M38.375 25.9375C38.375 26.6834 38.0787 27.3988 37.5512 27.9262C37.0238 28.4537 36.3084 28.75 35.5625 28.75H22.4375C21.6916 28.75 20.9762 28.4537 20.4488 27.9262C19.9213 27.3988 19.625 26.6834 19.625 25.9375V25.4688C19.625 25.3444 19.5756 25.2252 19.4877 25.1373C19.3998 25.0494 19.2806 25 19.1562 25H0.875V41.875C0.875 43.8641 1.66518 45.7718 3.0717 47.1783C4.47822 48.5848 6.38588 49.375 8.375 49.375H49.625C51.6141 49.375 53.5218 48.5848 54.9283 47.1783C56.3348 45.7718 57.125 43.8641 57.125 41.875V25H38.8438C38.7194 25 38.6002 25.0494 38.5123 25.1373C38.4244 25.2252 38.375 25.3444 38.375 25.4688V25.9375Z"
          fill="currentColor"/>
</svg>
