<svg width="54" height="54" viewBox="0 0 54 54" fill="none" xmlns="http://www.w3.org/2000/svg">
    <path d="M37.3125 15.75H16.6875C16.1697 15.75 15.75 16.1697 15.75 16.6875V37.3125C15.75 37.8303 16.1697 38.25 16.6875 38.25H37.3125C37.8303 38.25 38.25 37.8303 38.25 37.3125V16.6875C38.25 16.1697 37.8303 15.75 37.3125 15.75Z"
          fill="currentColor"/>
    <path d="M51.375 19.5C51.8723 19.5 52.3492 19.3025 52.7008 18.9508C53.0525 18.5992 53.25 18.1223 53.25 17.625C53.25 17.1277 53.0525 16.6508 52.7008 16.2992C52.3492 15.9475 51.8723 15.75 51.375 15.75H49.5V12C49.4978 10.0115 48.707 8.10515 47.3009 6.6991C45.8949 5.29305 43.9885 4.50217 42 4.5H38.25V2.625C38.25 2.12772 38.0525 1.65081 37.7008 1.29917C37.3492 0.947544 36.8723 0.75 36.375 0.75C35.8777 0.75 35.4008 0.947544 35.0492 1.29917C34.6975 1.65081 34.5 2.12772 34.5 2.625V4.5H28.875V2.625C28.875 2.12772 28.6775 1.65081 28.3258 1.29917C27.9742 0.947544 27.4973 0.75 27 0.75C26.5027 0.75 26.0258 0.947544 25.6742 1.29917C25.3225 1.65081 25.125 2.12772 25.125 2.625V4.5H19.5V2.625C19.5 2.12772 19.3025 1.65081 18.9508 1.29917C18.5992 0.947544 18.1223 0.75 17.625 0.75C17.1277 0.75 16.6508 0.947544 16.2992 1.29917C15.9475 1.65081 15.75 2.12772 15.75 2.625V4.5H12C10.0115 4.50217 8.10515 5.29305 6.6991 6.6991C5.29305 8.10515 4.50217 10.0115 4.5 12V15.75H2.625C2.12772 15.75 1.65081 15.9475 1.29917 16.2992C0.947544 16.6508 0.75 17.1277 0.75 17.625C0.75 18.1223 0.947544 18.5992 1.29917 18.9508C1.65081 19.3025 2.12772 19.5 2.625 19.5H4.5V25.125H2.625C2.12772 25.125 1.65081 25.3225 1.29917 25.6742C0.947544 26.0258 0.75 26.5027 0.75 27C0.75 27.4973 0.947544 27.9742 1.29917 28.3258C1.65081 28.6775 2.12772 28.875 2.625 28.875H4.5V34.5H2.625C2.12772 34.5 1.65081 34.6975 1.29917 35.0492C0.947544 35.4008 0.75 35.8777 0.75 36.375C0.75 36.8723 0.947544 37.3492 1.29917 37.7008C1.65081 38.0525 2.12772 38.25 2.625 38.25H4.5V42C4.50217 43.9885 5.29305 45.8949 6.6991 47.3009C8.10515 48.707 10.0115 49.4978 12 49.5H15.75V51.375C15.75 51.8723 15.9475 52.3492 16.2992 52.7008C16.6508 53.0525 17.1277 53.25 17.625 53.25C18.1223 53.25 18.5992 53.0525 18.9508 52.7008C19.3025 52.3492 19.5 51.8723 19.5 51.375V49.5H25.125V51.375C25.125 51.8723 25.3225 52.3492 25.6742 52.7008C26.0258 53.0525 26.5027 53.25 27 53.25C27.4973 53.25 27.9742 53.0525 28.3258 52.7008C28.6775 52.3492 28.875 51.8723 28.875 51.375V49.5H34.5V51.375C34.5 51.8723 34.6975 52.3492 35.0492 52.7008C35.4008 53.0525 35.8777 53.25 36.375 53.25C36.8723 53.25 37.3492 53.0525 37.7008 52.7008C38.0525 52.3492 38.25 51.8723 38.25 51.375V49.5H42C43.9885 49.4978 45.8949 48.707 47.3009 47.3009C48.707 45.8949 49.4978 43.9885 49.5 42V38.25H51.375C51.8723 38.25 52.3492 38.0525 52.7008 37.7008C53.0525 37.3492 53.25 36.8723 53.25 36.375C53.25 35.8777 53.0525 35.4008 52.7008 35.0492C52.3492 34.6975 51.8723 34.5 51.375 34.5H49.5V28.875H51.375C51.8723 28.875 52.3492 28.6775 52.7008 28.3258C53.0525 27.9742 53.25 27.4973 53.25 27C53.25 26.5027 53.0525 26.0258 52.7008 25.6742C52.3492 25.3225 51.8723 25.125 51.375 25.125H49.5V19.5H51.375ZM42 38.25C42 39.2446 41.6049 40.1984 40.9016 40.9016C40.1984 41.6049 39.2446 42 38.25 42H15.75C14.7554 42 13.8016 41.6049 13.0984 40.9016C12.3951 40.1984 12 39.2446 12 38.25V15.75C12 14.7554 12.3951 13.8016 13.0984 13.0984C13.8016 12.3951 14.7554 12 15.75 12H38.25C39.2446 12 40.1984 12.3951 40.9016 13.0984C41.6049 13.8016 42 14.7554 42 15.75V38.25Z"
          fill="currentColor"/>
</svg>
