<svg width="54" height="54" viewBox="0 0 54 54" fill="none" xmlns="http://www.w3.org/2000/svg">
    <path d="M45.5614 8.45387C43.1282 5.99664 40.2335 4.04437 37.0436 2.70924C33.8537 1.37411 30.4314 0.682419 26.9733 0.673908C23.5152 0.665396 20.0896 1.34023 16.8931 2.65965C13.6966 3.97906 10.7924 5.91705 8.34714 8.36228C5.90191 10.8075 3.96392 13.7118 2.64451 16.9082C1.3251 20.1047 0.65026 23.5304 0.658771 26.9884C0.667282 30.4465 1.35897 33.8688 2.69411 37.0587C4.02924 40.2487 5.9815 43.1434 8.43873 45.5765C10.8719 48.0338 13.7666 49.986 16.9565 51.3212C20.1465 52.6563 23.5688 53.348 27.0268 53.3565C30.4849 53.365 33.9106 52.6902 37.107 51.3708C40.3035 50.0513 43.2078 48.1133 45.653 45.6681C48.0982 43.2229 50.0362 40.3186 51.3556 37.1222C52.675 33.9257 53.3499 30.5 53.3414 27.042C53.3328 23.5839 52.6412 20.1616 51.306 16.9717C49.9709 13.7817 48.0186 10.887 45.5614 8.45387ZM4.50006 27.0152C4.49922 25.0238 4.76325 23.0412 5.28522 21.1195C6.14537 22.9711 7.39459 24.5707 8.2442 26.4703C9.34225 28.9125 12.2907 28.2351 13.5926 30.375C14.7481 32.2746 13.5141 34.6769 14.379 36.6644C15.0071 38.107 16.4883 38.4222 17.5102 39.4769C18.5544 40.541 18.5321 41.9988 18.6915 43.3863C18.8713 45.0165 19.163 46.6324 19.5645 48.2226C19.5645 48.2343 19.5645 48.2472 19.5739 48.259C10.8047 45.1793 4.50006 36.8203 4.50006 27.0152ZM27.0001 49.5152C25.7435 49.5148 24.4892 49.4098 23.2501 49.2011C23.263 48.8836 23.2688 48.5871 23.3005 48.3808C23.5852 46.5175 24.518 44.6953 25.7766 43.3007C27.02 41.925 28.7239 40.9945 29.7739 39.4336C30.8028 37.9101 31.111 35.8593 30.6868 34.0793C30.0622 31.4496 26.4891 30.5718 24.5626 29.1457C23.4551 28.3254 22.4696 27.0574 21.0153 26.9543C20.345 26.9074 19.7837 27.0515 19.1192 26.8804C18.5098 26.7222 18.0317 26.3941 17.3825 26.4797C16.1696 26.639 15.4044 27.9351 14.1012 27.7593C12.8649 27.5941 11.5911 26.1468 11.3098 24.9691C10.9489 23.455 12.1465 22.964 13.4297 22.8293C13.9653 22.773 14.5665 22.7121 15.0809 22.9089C15.7583 23.1597 16.0782 23.823 16.6864 24.1582C17.8266 24.7839 18.0575 23.7843 17.8829 22.7718C17.6215 21.2554 17.3169 20.6379 18.6692 19.5937C19.6067 18.8742 20.4083 18.3539 20.2583 17.0613C20.1692 16.3019 19.7532 15.9586 20.1411 15.2027C20.4352 14.6273 21.2426 14.1082 21.7688 13.7648C23.127 12.8789 27.5872 12.9445 25.7649 10.4648C25.2294 9.73707 24.2415 8.43629 23.304 8.25817C22.1321 8.03668 21.6118 9.34449 20.795 9.92106C19.9512 10.5175 18.3083 11.1949 17.4633 10.2726C16.3266 9.0316 18.2169 8.62496 18.6352 7.75778C18.8286 7.35348 18.6352 6.79215 18.3094 6.26363C18.7321 6.08551 19.1618 5.92028 19.5985 5.76793C19.8722 5.97008 20.1969 6.09183 20.536 6.11949C21.32 6.17106 22.0594 5.74684 22.7438 6.28121C23.5032 6.86715 24.0505 7.60778 25.0583 7.79059C26.0333 7.96754 27.0657 7.39918 27.3071 6.40074C27.4536 5.79371 27.3071 5.1527 27.1665 4.52574C31.5493 4.55096 35.8281 5.86354 39.4712 8.30035C39.2368 8.21129 38.9567 8.22184 38.611 8.38238C37.8997 8.71285 36.8919 9.55426 36.8087 10.3886C36.7137 11.3355 38.1106 11.4691 38.7739 11.4691C39.77 11.4691 40.779 11.0238 40.4579 9.87301C40.3184 9.37379 40.1286 8.85465 39.8227 8.54059C40.558 9.05077 41.2623 9.60409 41.9321 10.1976C41.9216 10.2082 41.911 10.2175 41.9005 10.2293C41.2255 10.9324 40.4415 11.489 39.9798 12.3445C39.654 12.9468 39.2872 13.2328 38.6274 13.3886C38.2641 13.4742 37.8493 13.5058 37.5446 13.7496C36.6962 14.4175 37.179 16.023 37.9829 16.5047C38.9989 17.1129 40.5059 16.8269 41.2723 15.9586C41.8712 15.2789 42.2239 14.0988 43.3008 14.1C43.775 14.099 44.2305 14.2846 44.5688 14.6168C45.0141 15.0785 44.9262 15.5097 45.0212 16.0863C45.1887 17.1105 46.0923 16.555 46.6419 16.0382C47.0425 16.7512 47.404 17.4855 47.7247 18.2379C47.12 19.1086 46.6395 20.0578 45.1852 19.0429C44.3145 18.4347 43.779 17.5523 42.6856 17.2781C41.7305 17.0437 40.752 17.2875 39.8087 17.4504C38.7364 17.6367 37.4649 17.7187 36.6516 18.5308C35.8653 19.3136 35.4493 20.3613 34.6126 21.1476C32.9942 22.6711 32.311 24.3339 33.3587 26.4879C34.3665 28.5586 36.4747 29.6824 38.7493 29.5347C40.9841 29.3859 43.3055 28.0898 43.2411 31.3371C43.2176 32.4867 43.4579 33.2824 43.8106 34.35C44.1376 35.3343 44.1153 36.2882 44.1903 37.3043C44.2616 38.494 44.4476 39.6741 44.7458 40.8281C42.6453 43.5325 39.9545 45.7211 36.8789 47.2267C33.8034 48.7323 30.4244 49.5151 27.0001 49.5152Z"
          fill="currentColor"/>
</svg>
