<svg width="42" height="54" viewBox="0 0 42 54" fill="none" xmlns="http://www.w3.org/2000/svg">
    <path d="M34.125 0.75H7.875C5.88654 0.752171 3.98015 1.54304 2.5741 2.9491C1.16805 4.35515 0.377171 6.26154 0.375 8.25V45.75C0.377171 47.7385 1.16805 49.6449 2.5741 51.0509C3.98015 52.457 5.88654 53.2478 7.875 53.25H34.125C36.1135 53.2478 38.0199 52.457 39.4259 51.0509C40.832 49.6449 41.6228 47.7385 41.625 45.75V8.25C41.6228 6.26154 40.832 4.35515 39.4259 2.9491C38.0199 1.54304 36.1135 0.752171 34.125 0.75ZM21 32.625H11.625C11.1277 32.625 10.6508 32.4275 10.2992 32.0758C9.94754 31.7242 9.75 31.2473 9.75 30.75C9.75 30.2527 9.94754 29.7758 10.2992 29.4242C10.6508 29.0725 11.1277 28.875 11.625 28.875H21C21.4973 28.875 21.9742 29.0725 22.3258 29.4242C22.6775 29.7758 22.875 30.2527 22.875 30.75C22.875 31.2473 22.6775 31.7242 22.3258 32.0758C21.9742 32.4275 21.4973 32.625 21 32.625ZM30.375 23.25H11.625C11.1277 23.25 10.6508 23.0525 10.2992 22.7008C9.94754 22.3492 9.75 21.8723 9.75 21.375C9.75 20.8777 9.94754 20.4008 10.2992 20.0492C10.6508 19.6975 11.1277 19.5 11.625 19.5H30.375C30.8723 19.5 31.3492 19.6975 31.7008 20.0492C32.0525 20.4008 32.25 20.8777 32.25 21.375C32.25 21.8723 32.0525 22.3492 31.7008 22.7008C31.3492 23.0525 30.8723 23.25 30.375 23.25ZM30.375 13.875H11.625C11.1277 13.875 10.6508 13.6775 10.2992 13.3258C9.94754 12.9742 9.75 12.4973 9.75 12C9.75 11.5027 9.94754 11.0258 10.2992 10.6742C10.6508 10.3225 11.1277 10.125 11.625 10.125H30.375C30.8723 10.125 31.3492 10.3225 31.7008 10.6742C32.0525 11.0258 32.25 11.5027 32.25 12C32.25 12.4973 32.0525 12.9742 31.7008 13.3258C31.3492 13.6775 30.8723 13.875 30.375 13.875Z"
          fill="currentColor"/>
</svg>
