<svg xmlns='http://www.w3.org/2000/svg' width="54" height="54" viewBox="0 0 54 54">
    <path d="M35.537 15.3738C34.8134 15.3742 34.1124 15.6255 33.5533 16.0848C32.9942 16.5441 32.6116 17.1831 32.4708 17.8929C32.33 18.6027 32.4396 19.3393 32.7811 19.9773C33.1225 20.6153 33.6745 21.1151 34.3432 21.3917C35.0118 21.6683 35.7557 21.7045 36.448 21.4942C37.1404 21.2838 37.7384 20.8399 38.1401 20.2381C38.5419 19.6363 38.7225 18.9138 38.6513 18.1937C38.5801 17.4736 38.2614 16.8005 37.7495 16.289C37.4593 15.9982 37.1144 15.7676 36.7347 15.6105C36.355 15.4534 35.9479 15.373 35.537 15.3738Z" fill="currentColor"/>
    <path d="M52.9501 2.86639C52.9496 2.86289 52.9496 2.85933 52.9501 2.85584C52.851 2.42144 52.6325 2.02338 52.3192 1.70657C52.0059 1.38977 51.6103 1.16681 51.1771 1.06287C47.6849 0.210916 42.1911 1.11912 36.1032 3.55662C29.9673 6.01756 24.2181 9.65037 20.3321 13.5433C19.0866 14.7823 17.9295 16.107 16.8693 17.5078C14.2525 17.3906 11.9474 17.7633 10.0056 18.6105C3.23918 21.5883 1.30676 29.209 0.792303 32.3379C0.71786 32.7824 0.747009 33.2382 0.87748 33.6697C1.00795 34.1011 1.23623 34.4967 1.54454 34.8255C1.85285 35.1544 2.23289 35.4076 2.65507 35.5656C3.07725 35.7236 3.53018 35.782 3.97863 35.7363H3.99387L11.5314 34.9137C11.5407 35.0097 11.5513 35.0976 11.5595 35.1785C11.6563 36.097 12.0659 36.9542 12.7196 37.6066L16.3982 41.2875C17.0496 41.9421 17.9067 42.3523 18.8251 42.4488L19.0771 42.4758L18.2568 50.0039C18.2568 50.0039 18.2568 50.0133 18.2568 50.0191C18.2148 50.4246 18.258 50.8343 18.3834 51.2221C18.5089 51.6099 18.7139 51.9673 18.9853 52.2714C19.2567 52.5755 19.5886 52.8196 19.9598 52.9881C20.3309 53.1566 20.7332 53.2458 21.1407 53.25C21.3037 53.2501 21.4663 53.2368 21.6271 53.2101C24.7736 52.7039 32.3907 50.7949 35.3603 43.9922C36.2005 42.0633 36.572 39.7676 36.4677 37.1554C37.8748 36.0976 39.2044 34.9403 40.4462 33.6926C44.3638 29.7949 48.0083 24.0926 50.4435 18.0457C52.8681 12.0269 53.781 6.49217 52.9501 2.86639ZM40.404 23.3601C39.4411 24.324 38.214 24.9807 36.8778 25.247C35.5416 25.5133 34.1565 25.3774 32.8976 24.8563C31.6388 24.3352 30.5627 23.4525 29.8056 22.3198C29.0486 21.187 28.6445 19.8552 28.6445 18.4928C28.6445 17.1303 29.0486 15.7985 29.8056 14.6657C30.5627 13.533 31.6388 12.6503 32.8976 12.1292C34.1565 11.6081 35.5416 11.4722 36.8778 11.7385C38.214 12.0048 39.4411 12.6615 40.404 13.6254C41.0494 14.2611 41.5619 15.0188 41.9118 15.8544C42.2616 16.69 42.4418 17.5869 42.4418 18.4928C42.4418 19.3986 42.2616 20.2955 41.9118 21.1311C41.5619 21.9667 41.0494 22.7244 40.404 23.3601Z" fill="currentColor"/>
    <path d="M15.9761 42.2859C15.5227 42.2297 15.0643 42.3409 14.6871 42.5988C13.9382 43.1109 13.1859 43.6172 12.4265 44.1105C10.8902 45.109 9.05268 43.3558 9.96557 41.7668L11.3894 39.3058C11.593 39.0081 11.7063 38.6579 11.7158 38.2973C11.7254 37.9367 11.6307 37.581 11.4432 37.2729C11.2557 36.9648 10.9833 36.7173 10.6586 36.5601C10.334 36.4029 9.97085 36.3427 9.61283 36.3867C8.03256 36.5865 6.56365 37.3064 5.43744 38.4328C5.00854 38.8629 3.70424 40.1683 3.00229 45.1429C2.80248 46.5718 2.67654 48.0101 2.62494 49.4519C2.61853 49.7022 2.66229 49.9512 2.75364 50.1842C2.84499 50.4173 2.98209 50.6297 3.15684 50.8089C3.33159 50.9882 3.54046 51.1306 3.77114 51.2278C4.00181 51.325 4.24962 51.3751 4.49994 51.375H4.54682C5.98979 51.3239 7.42919 51.1987 8.85932 51C13.8363 50.2968 15.1417 48.9914 15.5706 48.5625C16.7023 47.4358 17.4204 45.96 17.6085 44.3742C17.6688 43.8808 17.5307 43.3837 17.2246 42.9922C16.9185 42.6006 16.4694 42.3465 15.9761 42.2859Z" fill="currentColor"/>
</svg>