<svg width="58" height="50" viewBox="0 0 58 50" fill="none" xmlns="http://www.w3.org/2000/svg">
    <path d="M29 38.1249C28.6736 38.1249 28.3529 38.0396 28.0695 37.8776L11.6562 28.4968C11.5136 28.4144 11.3518 28.3711 11.1871 28.3712C11.0224 28.3712 10.8607 28.4147 10.7181 28.4971C10.5756 28.5796 10.4572 28.6981 10.3751 28.8408C10.2929 28.9835 10.2497 29.1454 10.25 29.3101V38.1249C10.2497 38.4596 10.339 38.7882 10.5086 39.0767C10.6782 39.3652 10.9219 39.603 11.2144 39.7655L28.0894 49.1405C28.368 49.2953 28.6814 49.3765 29 49.3765C29.3186 49.3765 29.632 49.2953 29.9105 49.1405L46.7855 39.7655C47.0781 39.603 47.3218 39.3652 47.4914 39.0767C47.661 38.7882 47.7503 38.4596 47.75 38.1249V29.3101C47.7502 29.1454 47.7071 28.9835 47.6249 28.8408C47.5427 28.6981 47.4244 28.5796 47.2818 28.4971C47.1393 28.4147 46.9775 28.3712 46.8128 28.3712C46.6481 28.3711 46.4864 28.4144 46.3437 28.4968L29.9305 37.8776C29.6471 38.0396 29.3264 38.1249 29 38.1249Z"
          fill="currentColor"/>
    <path d="M57.1156 17.3241C57.1156 17.3241 57.1156 17.3147 57.1156 17.3112C57.0853 17.014 56.9844 16.7284 56.8213 16.478C56.6582 16.2277 56.4377 16.02 56.1781 15.8722L29.9281 0.872163C29.6447 0.710196 29.324 0.625 28.9976 0.625C28.6712 0.625 28.3505 0.710196 28.0672 0.872163L1.81715 15.8722C1.53026 16.0362 1.29182 16.2731 1.12598 16.559C0.960146 16.8448 0.872803 17.1694 0.872803 17.4999C0.872803 17.8304 0.960146 18.155 1.12598 18.4408C1.29182 18.7267 1.53026 18.9636 1.81715 19.1276L28.0672 34.1276C28.3505 34.2896 28.6712 34.3748 28.9976 34.3748C29.324 34.3748 29.6447 34.2896 29.9281 34.1276L53.0234 20.9312C53.0591 20.9105 53.0996 20.8997 53.1408 20.8997C53.182 20.8998 53.2225 20.9107 53.2582 20.9314C53.2938 20.9521 53.3234 20.9818 53.3439 21.0175C53.3644 21.0533 53.3751 21.0938 53.375 21.1351V38.0722C53.375 39.0812 54.1508 39.9472 55.1597 39.9976C55.4133 40.0098 55.6666 39.9704 55.9045 39.8818C56.1423 39.7932 56.3597 39.6572 56.5434 39.4821C56.7272 39.3071 56.8735 39.0965 56.9734 38.8632C57.0734 38.6299 57.1249 38.3787 57.125 38.1249V17.4999C57.1248 17.4412 57.1217 17.3825 57.1156 17.3241Z"
          fill="currentColor"/>
</svg>
